<?xml version="1.0" standalone="no"?>
<!DOCTYPE svg PUBLIC "-//W3C//DTD SVG 20010904//EN"
 "http://www.w3.org/TR/2001/REC-SVG-20010904/DTD/svg10.dtd">
<svg version="1.0" xmlns="http://www.w3.org/2000/svg"
 width="200.000000pt" height="200.000000pt" viewBox="0 0 200.000000 200.000000"
 preserveAspectRatio="xMidYMid meet">

<g transform="translate(0.000000,200.000000) scale(0.100000,-0.100000)"
fill="#000000" stroke="none">
<path d="M795 1983 c-11 -3 -24 -9 -30 -13 -5 -4 -39 -20 -75 -35 -81 -34
-146 -62 -185 -80 -16 -8 -127 -55 -245 -106 -118 -50 -223 -100 -232 -111
-10 -11 -18 -36 -18 -55 0 -41 25 -67 128 -137 111 -75 107 -71 89 -100 -24
-36 -45 -98 -72 -211 -71 -292 19 -622 229 -844 43 -46 174 -148 216 -168 14
-7 32 -17 40 -22 79 -51 284 -100 422 -101 152 -1 345 51 463 125 81 51 78 50
138 16 79 -45 130 -38 156 20 15 35 5 70 -35 116 -27 32 -30 48 -11 60 26 16
115 160 150 243 52 121 62 180 61 355 -1 154 -3 178 -27 252 -55 173 -138 311
-258 423 -72 68 -86 80 -95 80 -4 0 -16 7 -26 17 -21 19 -45 33 -108 63 -128
62 -258 92 -403 95 l-108 3 -30 45 c-16 25 -36 50 -43 56 -16 14 -65 21 -91
14z m115 -171 c85 -121 258 -367 293 -414 20 -29 37 -57 37 -64 0 -7 -19 -18
-42 -24 -74 -19 -78 -21 -78 -35 0 -7 8 -21 18 -31 9 -10 42 -50 72 -90 30
-40 95 -122 144 -184 48 -61 85 -114 82 -117 -3 -4 -38 -15 -78 -25 -39 -10
-73 -20 -76 -23 -4 -4 86 -123 233 -305 33 -42 71 -90 85 -109 14 -18 32 -40
40 -49 53 -57 116 -149 108 -157 -2 -2 -17 4 -34 13 -49 26 -155 86 -173 97
-9 6 -34 21 -56 33 -22 12 -58 33 -80 47 -22 14 -50 29 -63 35 -12 5 -47 26
-77 45 -31 19 -57 35 -59 35 -2 0 -66 37 -142 81 -77 45 -164 96 -194 112 -30
17 -72 41 -93 54 -21 13 -49 28 -62 33 -42 16 -29 37 35 61 33 12 64 27 70 34
12 14 13 13 -110 100 -39 28 -93 67 -120 88 -27 20 -53 37 -57 37 -5 0 -16 8
-25 18 -8 9 -38 33 -66 52 -28 19 -51 38 -52 41 0 4 17 14 38 23 58 26 67 32
67 46 0 7 -65 59 -145 116 -80 56 -165 118 -190 136 -24 18 -53 36 -63 40 -10
5 -17 13 -15 20 4 10 154 81 289 137 19 8 52 22 74 31 22 10 60 26 84 36 25
11 101 44 170 75 l126 57 25 -28 c14 -15 41 -50 60 -78z"/>
</g>
</svg>
